<svg width="30" height="30" viewBox="0 0 30 30" xmlns="http://www.w3.org/2000/svg">
	<polyline fill="none" stroke="#444" stroke-width="2" points="25,22 25,27 3,27 3,7 8,7"/>
	<path fill="none" stroke="#444" stroke-width="2"
		  d="M16.855,13.714L12.714,9.57 c-1.144-1.142-1.144-2.999,0-4.285c1.144-1,2.571-1.286,3.999-0.142"/>
	<circle fill="#444" cx="11.43" cy="4" r="2"/>
	<path fill="none" stroke="#444" stroke-width="2"
		  d="M16.285,9.428l4.145-4.143 c1.143-1.143,3.143-1.143,4.285,0c1.145,1,1.285,2.572,0.143,4"/>
	<path fill="#444"
		  d="M28,4c0,1.144-0.889,1.999-1.925,1.999S24,5.144,24,4c0-1,0.893-2,2.075-2C27.111,2,28,2.857,28,4z"/>
	<path fill="none" stroke="#444" stroke-width="2"
		  d="M20.57,8.856L24.715,13 c1.145,1.143,1.145,2.999,0,4.286c-1.145,1.001-2.57,1.284-4,0.142"/>
	<path fill="#444"
		  d="M26,20.643c-1.145,0-2-0.889-2-1.926c0-1.184,0.855-2.074,2-2.074c1,0,2,0.892,2,2.074 C28,19.754,27.145,20.643,26,20.643z"/>
	<path fill="none" stroke="#444" stroke-width="2"
		  d="M21.145,13.143L17,17.286 c-1.145,1.144-3,1.144-4.286,0c-1.001-1-1.284-2.572-0.142-4.001"/>
	<path fill="#444"
		  d="M9.43,18.717c0-1.184,0.855-2.074,2-2.074c0.998,0,2,0.892,2,2.074c0,1.037-0.856,1.926-2,1.926 C10.285,20.643,9.43,19.754,9.43,18.717z"/>
</svg>