<svg width="20" height="20" viewBox="0 0 20 20" xmlns="http://www.w3.org/2000/svg">
	<polyline fill="none" stroke="#444" points="16.5,15 16.5,18.5 1.5,18.5 1.5,4.5 5,4.5" />
	<path fill="none" stroke="#444" stroke-width="1.2" d="M11.2,9.2L8.3,6.3c-0.8-0.8-0.8-2.1,0-3 c0.8-0.7,1.8-0.9,2.8-0.1" />
	<circle fill="#444" cx="7.4" cy="2.4" r="1.4" />
	<path fill="none" stroke="#444" stroke-width="1.2" d="M10.8,6.2l2.9-2.9c0.8-0.8,2.2-0.8,3,0 c0.8,0.7,0.9,1.8,0.1,2.8" />
	<path fill="#444" d="M19,2.4c0,0.8-0.6,1.4-1.3,1.4c-0.7,0-1.4-0.6-1.4-1.4c0-0.7,0.6-1.4,1.4-1.4C18.4,1,19,1.6,19,2.4z" />
	<path fill="none" stroke="#444" stroke-width="1.2" d="M13.8,5.8l2.9,2.9c0.8,0.8,0.8,2.1,0,3 c-0.8,0.7-1.8,0.9-2.8,0.1" />
	<path fill="#444" d="M17.6,14c-0.8,0-1.4-0.6-1.4-1.3c0-0.8,0.6-1.4,1.4-1.4c0.7,0,1.4,0.6,1.4,1.4C19,13.4,18.4,14,17.6,14z" />
	<path fill="none" stroke="#444" stroke-width="1.2" d="M14.2,8.8l-2.9,2.9c-0.8,0.8-2.1,0.8-3,0 C7.6,11,7.4,9.9,8.2,8.9" />
	<path fill="#444" d="M6,12.7c0-0.8,0.6-1.4,1.4-1.4c0.7,0,1.4,0.6,1.4,1.4c0,0.7-0.6,1.3-1.4,1.3C6.6,14,6,13.4,6,12.7z" />
</svg>